<?xml version="1.0" standalone="no"?>
<!DOCTYPE svg PUBLIC "-//W3C//DTD SVG 20010904//EN"
 "http://www.w3.org/TR/2001/REC-SVG-20010904/DTD/svg10.dtd">
<svg version="1.0" xmlns="http://www.w3.org/2000/svg"
 width="676.000000pt" height="676.000000pt" viewBox="0 0 676.000000 676.000000"
 preserveAspectRatio="xMidYMid meet">
<metadata>
Created by potrace 1.11, written by Peter Selinger 2001-2013
</metadata>
<g transform="translate(0.000000,676.000000) scale(0.100000,-0.100000)"
fill="#000000" stroke="none">
<path d="M3158 6755 c-1 -1 -39 -6 -84 -9 -44 -4 -123 -13 -175 -21 -52 -8
-112 -17 -134 -20 -22 -3 -48 -8 -57 -11 -9 -3 -25 -6 -35 -8 -11 -2 -50 -12
-87 -21 -37 -9 -72 -18 -79 -19 -72 -14 -323 -101 -462 -161 -676 -290 -1218
-776 -1607 -1440 -20 -34 -146 -290 -173 -350 -62 -142 -154 -429 -180 -557
-3 -16 -7 -40 -10 -55 -3 -16 -8 -35 -10 -43 -3 -8 -7 -33 -10 -55 -4 -22 -8
-47 -10 -55 -2 -8 -7 -37 -10 -65 -4 -27 -8 -61 -11 -75 -19 -116 -26 -557
-11 -715 14 -149 38 -291 82 -497 53 -246 212 -641 357 -886 24 -40 51 -88 62
-105 78 -136 307 -424 448 -567 358 -362 776 -636 1222 -802 129 -48 313 -105
394 -123 122 -27 216 -46 243 -49 19 -3 50 -7 69 -10 145 -23 253 -30 475 -31
193 0 408 10 425 20 3 1 32 6 65 10 33 3 107 15 165 27 110 21 111 21 175 38
22 6 51 13 65 16 48 10 266 83 365 122 697 278 1271 768 1660 1416 71 118 175
326 220 436 10 25 23 59 30 75 48 117 114 340 149 505 27 127 28 133 52 311
26 184 24 693 -1 814 -3 11 -7 38 -9 60 -18 154 -74 397 -136 586 -75 224
-214 526 -324 699 -40 64 -141 215 -153 230 -6 8 -40 51 -74 95 -480 615
-1164 1046 -1929 1214 -117 26 -225 44 -400 66 -48 7 -546 16 -552 10z"/>
</g>
</svg>
